<?xml version="1.0" standalone="no"?>
<!DOCTYPE svg PUBLIC "-//W3C//DTD SVG 20010904//EN"
 "http://www.w3.org/TR/2001/REC-SVG-20010904/DTD/svg10.dtd">
<svg version="1.0" xmlns="http://www.w3.org/2000/svg"
 width="1503.000000pt" height="1503.000000pt" viewBox="0 0 1503.000000 1503.000000"
 preserveAspectRatio="xMidYMid meet">
<metadata>
Created by potrace 1.11, written by Peter Selinger 2001-2013
</metadata>
<g transform="translate(0.000000,1503.000000) scale(0.100000,-0.100000)"
fill="#000000" stroke="none">
<path d="M10780 12492 c-1019 -650 -2126 -1628 -3004 -2656 -95 -111 -198
-233 -229 -273 l-58 -71 -97 55 c-706 404 -1586 570 -2397 452 -644 -93 -1236
-339 -1760 -730 -104 -78 -294 -240 -345 -295 -19 -20 6 -2 55 41 534 461
1178 745 1890 831 190 23 560 23 750 0 461 -56 918 -201 1297 -412 113 -62
353 -217 363 -234 4 -6 -29 -59 -73 -118 -619 -833 -1132 -1725 -1525 -2647
-240 -564 -450 -1197 -598 -1797 l-43 -177 13 -78 c80 -477 379 -843 791 -967
94 -28 254 -56 268 -47 5 3 19 71 32 151 30 192 117 623 180 890 279 1182 689
2365 1205 3475 106 229 335 687 359 720 11 15 21 6 87 -81 396 -519 632 -1107
704 -1754 17 -157 20 -518 5 -671 -144 -1454 -1145 -2644 -2544 -3024 -447
-121 -980 -149 -1441 -74 -875 142 -1671 620 -2202 1324 -331 438 -564 977
-652 1510 -38 226 -46 328 -46 575 0 256 9 360 51 595 34 197 36 206 19 150
-122 -411 -149 -1063 -64 -1560 108 -635 383 -1249 784 -1750 623 -778 1497
-1265 2520 -1402 184 -25 715 -25 897 0 765 103 1423 388 1995 862 138 115
363 340 478 478 476 573 770 1259 861 2007 22 179 29 525 15 710 -39 518 -191
1050 -428 1500 -177 337 -386 621 -660 900 l-142 146 41 69 c351 597 616 1002
946 1445 568 762 1179 1427 1846 2008 27 23 47 42 45 42 -3 0 -88 -53 -189
-118z"/>
<path d="M10964 11500 c-630 -61 -1278 -468 -1820 -1145 -99 -123 -264 -355
-264 -370 0 -4 24 13 53 37 299 255 682 458 1057 563 267 74 459 99 775 99
405 1 747 -55 1134 -184 146 -49 346 -129 324 -130 -7 0 -79 13 -160 29 -491
98 -945 103 -1391 16 -550 -107 -1070 -381 -1436 -754 l-98 -101 42 -50 c91
-108 316 -295 462 -384 511 -310 1068 -336 1699 -80 239 96 453 216 789 441
216 146 312 198 450 248 212 76 532 142 808 166 78 7 142 16 142 20 0 21 -289
374 -445 543 -550 596 -1106 936 -1671 1021 -126 19 -333 26 -450 15z"/>
<path d="M2830 8919 c0 -5 5 -7 10 -4 6 3 10 8 10 11 0 2 -4 4 -10 4 -5 0 -10
-5 -10 -11z"/>
<path d="M2630 7927 c8 -7 60 -49 114 -93 146 -116 329 -285 520 -478 778
-788 1343 -1678 1661 -2616 60 -177 54 -182 75 55 39 430 148 1028 297 1628
l57 228 -55 55 c-85 87 -271 251 -387 342 -607 473 -1335 772 -2137 876 -151
20 -164 20 -145 3z"/>
<path d="M1861 7264 c0 -11 3 -14 6 -6 3 7 2 16 -1 19 -3 4 -6 -2 -5 -13z"/>
<path d="M1851 7224 c0 -11 3 -14 6 -6 3 7 2 16 -1 19 -3 4 -6 -2 -5 -13z"/>
<path d="M14195 3322 c-5 -4 -19 -18 -30 -31 l-20 -24 63 6 c91 10 104 20 50
40 -50 19 -49 19 -63 9z"/>
</g>
</svg>
